<svg width="100" height="100" xmlns="http://www.w3.org/2000/svg">
  <defs>
    <pattern id="p" width="100" height="100" patternUnits="userSpaceOnUse">
      <path d="M 10 10 C 20 20, 40 20, 50 10 C 60 0, 80 0, 90 10 C 95 15, 95 25, 90 30 L 70 50 L 50 30 C 40 20, 20 20, 10 30 L 10 10 Z" fill="hsl(var(--primary))" fill-opacity="0.2"/>
      <path d="M 50 50 C 60 60, 80 60, 90 50 C 100 40, 100 20, 90 10 L 70 -10 L 50 10 C 40 20, 20 20, 10 10 L -10 30 L 10 50 C 20 60, 40 60, 50 50 Z" fill="hsl(var(--primary))" fill-opacity="0.2"/>
    </pattern>
  </defs>
  <rect width="100%" height="100%" fill="url(#p)"/>
</svg>
